# xmcd
#
# Track frame offsets: 
#        150
#        25281
#        36988
#        58963
#        75391
#        102323
#        115898
#        131830
#        149584
#        164413
#        178027
#        185750
#
# Disc length: 2641 seconds
#
# Revision: 0
# Processed by: cddbd v1.5.2PL0 Copyright (c) Steve Scherf et al.
# Submitted via: ExactAudioCopy v1.2
#
DISCID=b20a4f0c
DTITLE=Little G Weevil - Three Chords Too Many
DYEAR=2016
DGENRE=Blues
TTITLE0=Apple Picker (Acoustic)
TTITLE1=Dad's Story
TTITLE2=You're The One
TTITLE3=Going Back South
TTITLE4=Place A Dollar In My Hand
TTITLE5=The Tale Of Captain Siegal
TTITLE6=One Little Cup
TTITLE7=Wealthy Man
TTITLE8=Outdated Citizen
TTITLE9=Sunshine Blues
TTITLE10=Meet Me In The City
TTITLE11=Saving A Marriage
EXTD=
EXTT0=
EXTT1=
EXTT2=
EXTT3=
EXTT4=
EXTT5=
EXTT6=
EXTT7=
EXTT8=
EXTT9=
EXTT10=
EXTT11=
PLAYORDER=
